<svg width="24" height="24" viewBox="0 0 24 24" fill="none" xmlns="http://www.w3.org/2000/svg">
<g id="brand-mark">
<path id="base" d="M2.09749e-06 6C2.67669e-06 2.68629 2.68545 -5.79387e-07 5.99812 0L17.9943 2.09815e-06C21.307 2.67753e-06 23.9925 2.68629 23.9925 6L23.9925 18C23.9925 21.3137 21.307 24 17.9943 24L5.99811 24C2.68545 24 -5.79205e-07 21.3137 0 18L2.09749e-06 6Z" fill="#1589EE"/>
<path id="top" opacity="0.75" d="M8.24747 8.54707C8.24747 8.71917 8.38223 8.88221 8.5905 8.95468C8.81102 9.02714 9.05604 9.00903 9.23981 8.90033L9.25206 8.89127L11.9963 7.17932L14.7405 8.89127L14.7528 8.90033C14.863 8.96374 14.9978 8.99997 15.1326 8.99997C15.2183 8.99997 15.3163 8.98185 15.4021 8.94562C15.6104 8.87316 15.7451 8.71011 15.7451 8.53801L15.7451 2.22461L15.7451 2.22205L15.7451 -2.57492e-05L8.24747 -2.73586e-05L8.24747 8.54707Z" fill="white"/>
<path id="middle" opacity="0.5" d="M8.24747 11.5471C8.24747 11.7192 8.38224 11.8822 8.5905 11.9547C8.81102 12.0271 9.05604 12.009 9.23981 11.9003L9.25206 11.8913L11.9963 10.1793L14.7405 11.8913L14.7528 11.9003C14.863 11.9637 14.9978 12 15.1326 12C15.2183 12 15.3163 11.9819 15.4021 11.9456C15.6104 11.8732 15.7451 11.7101 15.7451 11.538L15.7451 5.22461L15.7451 5.22205L15.7451 -1.52588e-05L8.24747 -1.59145e-05L8.24747 11.5471Z" fill="white"/>
<path id="bottom" opacity="0.25" d="M8.24735 14.5471C8.24735 14.7192 8.38211 14.8822 8.59038 14.9547C8.8109 15.0271 9.05592 15.009 9.23969 14.9003L9.25194 14.8913L11.9962 13.1793L14.7404 14.8913L14.7527 14.9003C14.8629 14.9637 14.9977 15 15.1324 15C15.2182 15 15.3162 14.9819 15.402 14.9456C15.6102 14.8732 15.745 14.7101 15.745 14.538L15.745 8.22461C15.745 8.22375 15.745 8.2229 15.745 8.22205L15.745 -2.67029e-05L8.24735 -2.73586e-05L8.24735 14.5471Z" fill="white"/>
</g>
</svg>
