<svg width="93" height="96" viewBox="0 0 93 96" fill="none" xmlns="http://www.w3.org/2000/svg">
<g opacity="0.75">
<path opacity="0.4" d="M46.5 60C43.3185 59.9965 40.2682 58.7311 38.0186 56.4814C35.7689 54.2318 34.5035 51.1815 34.5 48C34.5 42.5719 38.1469 38.0269 43.1025 36.5494L53.4375 26.2106L53.04 25.0144C50.9494 24.42 48.7837 24 46.5 24C41.7533 24 37.1131 25.4076 33.1663 28.0447C29.2195 30.6819 26.1434 34.4302 24.3269 38.8156C22.5104 43.201 22.0351 48.0266 22.9612 52.6822C23.8872 57.3377 26.173 61.6141 29.5294 64.9706C32.8859 68.327 37.1623 70.6128 41.8178 71.5388C46.4734 72.4649 51.299 71.9896 55.6844 70.1731C60.0698 68.3566 63.8181 65.2805 66.4553 61.3337C69.0924 57.3869 70.5 52.7467 70.5 48C70.5 45.7163 70.08 43.5506 69.4837 41.4581L68.2894 41.0625L57.9506 51.4013C57.2236 53.8771 55.7161 56.0519 53.6526 57.6014C51.5892 59.1509 49.0804 59.9922 46.5 60ZM90.8306 33.9563L84.1744 40.6125C83.1566 41.6212 81.9295 42.3938 80.58 42.8756C83.5612 61.8488 70.5975 79.6444 51.6244 82.6256C32.6512 85.6069 14.8556 72.6413 11.8744 53.67C8.89313 34.6987 21.8587 16.9013 40.83 13.92C44.4258 13.3559 48.0877 13.3591 51.6825 13.9294C52.1453 12.5814 52.8979 11.3513 53.8875 10.3256L60.5437 3.66938C56.0014 2.23063 51.2648 1.49895 46.5 1.5C20.8125 1.5 0 22.3125 0 48C0 73.6875 20.8125 94.5 46.5 94.5C72.1875 94.5 93 73.6875 93 48C93.001 43.2352 92.2694 38.4986 90.8306 33.9563Z" fill="white"/>
<path d="M58.125 14.5687L70.065 2.62499C70.5293 2.16215 71.104 1.82537 71.7347 1.64649C72.3654 1.46761 73.0313 1.45253 73.6695 1.60269C74.3077 1.75285 74.897 2.06328 75.3818 2.50463C75.8666 2.94598 76.2308 3.50368 76.44 4.12499L79.9181 14.5594L90.3544 18.0375C90.9757 18.2467 91.5334 18.6109 91.9747 19.0957C92.4161 19.5805 92.7265 20.1698 92.8767 20.808C93.0268 21.4461 93.0118 22.1121 92.8329 22.7428C92.654 23.3735 92.3172 23.9482 91.8544 24.4125L79.9312 36.375C79.4261 36.8806 78.7905 37.2359 78.0953 37.4014C77.4 37.567 76.6725 37.5362 75.9937 37.3125L66.675 34.2056L49.6875 51.1875C48.8421 52.0329 47.6955 52.5078 46.5 52.5078C45.3044 52.5078 44.1579 52.0329 43.3125 51.1875C42.4671 50.3421 41.9922 49.1955 41.9922 48C41.9922 46.8044 42.4671 45.6579 43.3125 44.8125L60.2981 27.8269L57.1875 18.5081C56.9634 17.8291 56.9324 17.1012 57.098 16.4056C57.2635 15.71 57.6191 15.074 58.125 14.5687Z" fill="white"/>
</g>
</svg>
