<svg width="72" height="96" viewBox="0 0 72 96" fill="none" xmlns="http://www.w3.org/2000/svg">
<g opacity="0.75" clip-path="url(#clip0_13458_63902)">
<path opacity="0.4" d="M63 12H48C51.1826 12 54.2348 13.2643 56.4853 15.5147C58.7357 17.7652 60 20.8174 60 24H12C12 20.8174 13.2643 17.7652 15.5147 15.5147C17.7652 13.2643 20.8174 12 24 12H9C6.61305 12 4.32387 12.9482 2.63604 14.636C0.948211 16.3239 0 18.6131 0 21L0 87C0 89.3869 0.948211 91.6761 2.63604 93.364C4.32387 95.0518 6.61305 96 9 96H63C65.3869 96 67.6761 95.0518 69.364 93.364C71.0518 91.6761 72 89.3869 72 87V21C72 18.6131 71.0518 16.3239 69.364 14.636C67.6761 12.9482 65.3869 12 63 12ZM12.3 45.2625L14.6813 42.9C14.7748 42.8063 14.8858 42.732 15.0081 42.6814C15.1303 42.6307 15.2614 42.6046 15.3937 42.6046C15.5261 42.6046 15.6572 42.6307 15.7794 42.6814C15.9017 42.732 16.0127 42.8063 16.1063 42.9L19.9688 46.8L28.8938 37.95C28.9873 37.8563 29.0983 37.782 29.2206 37.7313C29.3428 37.6807 29.4739 37.6546 29.6062 37.6546C29.7386 37.6546 29.8697 37.6807 29.9919 37.7313C30.1142 37.782 30.2252 37.8563 30.3187 37.95L32.6813 40.3313C32.7749 40.4248 32.8492 40.5358 32.8999 40.6581C32.9506 40.7803 32.9767 40.9114 32.9767 41.0437C32.9767 41.1761 32.9506 41.3072 32.8999 41.4294C32.8492 41.5517 32.7749 41.6627 32.6813 41.7562L20.6437 53.6812C20.5502 53.7749 20.4392 53.8492 20.3169 53.8999C20.1947 53.9506 20.0636 53.9767 19.9313 53.9767C19.7989 53.9767 19.6678 53.9506 19.5456 53.8999C19.4233 53.8492 19.3123 53.7749 19.2188 53.6812L12.3 46.6875C12.2063 46.594 12.132 46.4829 12.0813 46.3607C12.0307 46.2384 12.0046 46.1073 12.0046 45.975C12.0046 45.8426 12.0307 45.7116 12.0813 45.5893C12.132 45.4671 12.2063 45.356 12.3 45.2625ZM18 73.5C17.11 73.5 16.24 73.2361 15.4999 72.7416C14.7599 72.2471 14.1831 71.5443 13.8425 70.7221C13.5019 69.8998 13.4128 68.995 13.5865 68.1221C13.7601 67.2492 14.1887 66.4474 14.818 65.818C15.4474 65.1887 16.2492 64.7601 17.1221 64.5865C17.995 64.4128 18.8998 64.5019 19.7221 64.8425C20.5443 65.1831 21.2471 65.7599 21.7416 66.4999C22.2361 67.24 22.5 68.11 22.5 69C22.5015 69.5914 22.3861 70.1772 22.1605 70.7238C21.9349 71.2705 21.6034 71.7671 21.1853 72.1853C20.7671 72.6035 20.2705 72.9349 19.7238 73.1605C19.1772 73.3861 18.5914 73.5015 18 73.5ZM60 70.5C60 70.8978 59.842 71.2794 59.5607 71.5607C59.2794 71.842 58.8978 72 58.5 72H31.5C31.1022 72 30.7206 71.842 30.4393 71.5607C30.158 71.2794 30 70.8978 30 70.5V67.5C30 67.1022 30.158 66.7206 30.4393 66.4393C30.7206 66.158 31.1022 66 31.5 66H58.5C58.8978 66 59.2794 66.158 59.5607 66.4393C59.842 66.7206 60 67.1022 60 67.5V70.5ZM60 52.5C60 53.325 59.1937 54 58.2 54H28.8938L34.95 48H58.2C59.1937 48 60 48.675 60 49.5V52.5Z" fill="white"/>
<path d="M18 64.5C17.11 64.5 16.24 64.7639 15.4999 65.2584C14.7599 65.7529 14.1831 66.4557 13.8425 67.2779C13.5019 68.1002 13.4128 69.005 13.5865 69.8779C13.7601 70.7508 14.1887 71.5526 14.818 72.182C15.4474 72.8113 16.2492 73.2399 17.1221 73.4135C17.995 73.5872 18.8998 73.498 19.7221 73.1575C20.5443 72.8169 21.2471 72.2401 21.7416 71.5001C22.2361 70.76 22.5 69.89 22.5 69C22.5015 68.4086 22.3861 67.8228 22.1605 67.2762C21.9349 66.7295 21.6034 66.2329 21.1853 65.8147C20.7671 65.3966 20.2705 65.0651 19.7238 64.8395C19.1772 64.6139 18.5914 64.4985 18 64.5ZM30.3187 37.95C30.2252 37.8563 30.1142 37.782 29.9919 37.7313C29.8697 37.6807 29.7386 37.6546 29.6062 37.6546C29.4739 37.6546 29.3428 37.6807 29.2206 37.7313C29.0983 37.782 28.9873 37.8563 28.8938 37.95L19.9688 46.8L16.1063 42.9C16.0127 42.8063 15.9017 42.732 15.7794 42.6814C15.6572 42.6307 15.5261 42.6046 15.3937 42.6046C15.2614 42.6046 15.1303 42.6307 15.0081 42.6814C14.8858 42.732 14.7748 42.8063 14.6813 42.9L12.3 45.2625C12.2063 45.356 12.132 45.4671 12.0813 45.5893C12.0307 45.7116 12.0046 45.8426 12.0046 45.975C12.0046 46.1073 12.0307 46.2384 12.0813 46.3607C12.132 46.4829 12.2063 46.594 12.3 46.6875L19.2188 53.6812C19.3123 53.7749 19.4233 53.8492 19.5456 53.8999C19.6678 53.9506 19.7989 53.9767 19.9313 53.9767C20.0636 53.9767 20.1947 53.9506 20.3169 53.8999C20.4392 53.8492 20.5502 53.7749 20.6437 53.6812L32.6813 41.7562C32.7749 41.6627 32.8492 41.5517 32.8999 41.4294C32.9506 41.3072 32.9767 41.1761 32.9767 41.0437C32.9767 40.9114 32.9506 40.7803 32.8999 40.6581C32.8492 40.5358 32.7749 40.4248 32.6813 40.3313L30.3187 37.95ZM48 12C48 8.8174 46.7357 5.76516 44.4853 3.51472C42.2348 1.26428 39.1826 0 36 0C32.8174 0 29.7652 1.26428 27.5147 3.51472C25.2643 5.76516 24 8.8174 24 12C20.8174 12 17.7652 13.2643 15.5147 15.5147C13.2643 17.7652 12 20.8174 12 24H60C60 20.8174 58.7357 17.7652 56.4853 15.5147C54.2348 13.2643 51.1826 12 48 12ZM36 16.5C35.11 16.5 34.24 16.2361 33.4999 15.7416C32.7599 15.2471 32.1831 14.5443 31.8425 13.7221C31.5019 12.8998 31.4128 11.995 31.5865 11.1221C31.7601 10.2492 32.1887 9.44736 32.818 8.81802C33.4474 8.18868 34.2492 7.7601 35.1221 7.58647C35.995 7.41283 36.8998 7.50195 37.7221 7.84254C38.5443 8.18314 39.2471 8.75991 39.7416 9.49993C40.2361 10.24 40.5 11.11 40.5 12C40.5015 12.5914 40.3861 13.1772 40.1605 13.7238C39.9349 14.2705 39.6034 14.7671 39.1853 15.1853C38.7671 15.6034 38.2705 15.9349 37.7238 16.1605C37.1772 16.3861 36.5914 16.5015 36 16.5Z" fill="white"/>
</g>
<defs>
<clipPath id="clip0_13458_63902">
<rect width="72" height="96" fill="white"/>
</clipPath>
</defs>
</svg>
