<svg xmlns="http://www.w3.org/2000/svg" width="81" height="24" viewBox="0 0 81 24" fill="none">
  <path d="M78 24H3C1.32 24 0 22.68 0 21V3C0 1.32 1.32 0 3 0H78C79.68 0 81 1.32 81 3V21C81 22.68 79.68 24 78 24Z" fill="white"/>
  <path d="M28.44 6.11998C28.44 6.59998 28.32 7.01998 28.02 7.31998C27.66 7.67998 27.24 7.85998 26.7 7.85998C26.16 7.85998 25.74 7.67998 25.38 7.31998C25.02 6.95998 24.84 6.53998 24.84 5.99998C24.84 5.45998 25.02 5.03998 25.38 4.67998C25.74 4.31998 26.16 4.13998 26.7 4.13998C26.94 4.13998 27.18 4.19998 27.42 4.31998C27.66 4.43998 27.84 4.55998 27.96 4.73998L27.66 5.03998C27.42 4.73998 27.12 4.61998 26.7 4.61998C26.34 4.61998 25.98 4.73998 25.74 5.03998C25.44 5.27998 25.32 5.63998 25.32 6.05998C25.32 6.47998 25.44 6.83998 25.74 7.07998C26.04 7.31998 26.34 7.49998 26.7 7.49998C27.12 7.49998 27.42 7.37998 27.72 7.07998C27.9 6.89998 28.02 6.65998 28.02 6.35998H26.7V5.87998H28.44V6.11998ZM31.2 4.61998H29.58V5.75998H31.08V6.17998H29.58V7.31998H31.2V7.79998H29.1V4.19998H31.2V4.61998ZM33.18 7.79998H32.7V4.61998H31.68V4.19998H34.2V4.61998H33.18V7.79998ZM35.94 7.79998V4.19998H36.42V7.79998H35.94ZM38.46 7.79998H37.98V4.61998H36.96V4.19998H39.42V4.61998H38.4V7.79998H38.46ZM44.16 7.31998C43.8 7.67998 43.38 7.85998 42.84 7.85998C42.3 7.85998 41.88 7.67998 41.52 7.31998C41.16 6.95998 40.98 6.53998 40.98 5.99998C40.98 5.45998 41.16 5.03998 41.52 4.67998C41.88 4.31998 42.3 4.13998 42.84 4.13998C43.38 4.13998 43.8 4.31998 44.16 4.67998C44.52 5.03998 44.7 5.45998 44.7 5.99998C44.7 6.53998 44.52 6.95998 44.16 7.31998ZM41.88 7.01998C42.12 7.25998 42.48 7.43998 42.84 7.43998C43.2 7.43998 43.56 7.31998 43.8 7.01998C44.04 6.77998 44.22 6.41998 44.22 5.99998C44.22 5.57998 44.1 5.21998 43.8 4.97998C43.56 4.73998 43.2 4.55998 42.84 4.55998C42.48 4.55998 42.12 4.67998 41.88 4.97998C41.64 5.21998 41.46 5.57998 41.46 5.99998C41.46 6.41998 41.58 6.77998 41.88 7.01998ZM45.36 7.79998V4.19998H45.9L47.64 7.01998V4.19998H48.12V7.79998H47.64L45.78 4.85998V7.79998H45.36Z" fill="#0F1729" stroke="white" stroke-width="0.12" stroke-miterlimit="10"/>
  <path d="M40.86 13.08C39.42 13.08 38.28 14.16 38.28 15.66C38.28 17.1 39.42 18.24 40.86 18.24C42.3 18.24 43.44 17.16 43.44 15.66C43.44 14.1 42.3 13.08 40.86 13.08ZM40.86 17.16C40.08 17.16 39.42 16.5 39.42 15.6C39.42 14.7 40.08 14.04 40.86 14.04C41.64 14.04 42.3 14.64 42.3 15.6C42.3 16.5 41.64 17.16 40.86 17.16ZM35.28 13.08C33.84 13.08 32.7 14.16 32.7 15.66C32.7 17.1 33.84 18.24 35.28 18.24C36.72 18.24 37.86 17.16 37.86 15.66C37.86 14.1 36.72 13.08 35.28 13.08ZM35.28 17.16C34.5 17.16 33.84 16.5 33.84 15.6C33.84 14.7 34.5 14.04 35.28 14.04C36.06 14.04 36.72 14.64 36.72 15.6C36.72 16.5 36.06 17.16 35.28 17.16ZM28.62 13.86V14.94H31.2C31.14 15.54 30.9 16.02 30.6 16.32C30.24 16.68 29.64 17.1 28.62 17.1C27 17.1 25.8 15.84 25.8 14.22C25.8 12.6 27.06 11.34 28.62 11.34C29.46 11.34 30.12 11.7 30.6 12.12L31.38 11.34C30.72 10.74 29.88 10.26 28.68 10.26C26.52 10.26 24.66 12.06 24.66 14.22C24.66 16.38 26.52 18.18 28.68 18.18C29.88 18.18 30.72 17.82 31.44 17.04C32.16 16.32 32.4 15.3 32.4 14.52C32.4 14.28 32.4 14.04 32.34 13.86H28.62ZM55.86 14.7C55.62 14.1 55.02 13.08 53.7 13.08C52.38 13.08 51.3 14.1 51.3 15.66C51.3 17.1 52.38 18.24 53.82 18.24C54.96 18.24 55.68 17.52 55.92 17.1L55.08 16.5C54.78 16.92 54.42 17.22 53.82 17.22C53.22 17.22 52.86 16.98 52.56 16.44L55.98 15L55.86 14.7ZM52.38 15.54C52.38 14.58 53.16 14.04 53.7 14.04C54.12 14.04 54.54 14.28 54.66 14.58L52.38 15.54ZM49.56 18H50.7V10.5H49.56V18ZM47.76 13.62C47.46 13.32 46.98 13.02 46.38 13.02C45.12 13.02 43.92 14.16 43.92 15.6C43.92 17.04 45.06 18.12 46.38 18.12C46.98 18.12 47.46 17.82 47.7 17.52H47.76V17.88C47.76 18.84 47.22 19.38 46.38 19.38C45.72 19.38 45.24 18.9 45.12 18.48L44.16 18.9C44.46 19.56 45.18 20.4 46.44 20.4C47.76 20.4 48.84 19.62 48.84 17.76V13.2H47.76V13.62ZM46.44 17.16C45.66 17.16 45 16.5 45 15.6C45 14.7 45.66 14.04 46.44 14.04C47.22 14.04 47.82 14.7 47.82 15.6C47.82 16.5 47.22 17.16 46.44 17.16ZM61.08 10.5H58.38V18H59.52V15.18H61.08C62.34 15.18 63.54 14.28 63.54 12.84C63.54 11.4 62.34 10.5 61.08 10.5ZM61.14 14.1H59.52V11.52H61.14C61.98 11.52 62.46 12.24 62.46 12.78C62.4 13.44 61.92 14.1 61.14 14.1ZM68.04 13.02C67.2 13.02 66.36 13.38 66.06 14.16L67.08 14.58C67.32 14.16 67.68 14.04 68.1 14.04C68.7 14.04 69.24 14.4 69.3 15V15.06C69.12 14.94 68.64 14.76 68.16 14.76C67.08 14.76 66 15.36 66 16.44C66 17.46 66.9 18.12 67.86 18.12C68.64 18.12 69 17.76 69.3 17.4H69.36V18H70.44V15.12C70.32 13.8 69.3 13.02 68.04 13.02ZM67.92 17.16C67.56 17.16 67.02 16.98 67.02 16.5C67.02 15.9 67.68 15.72 68.22 15.72C68.7 15.72 68.94 15.84 69.24 15.96C69.12 16.68 68.52 17.16 67.92 17.16ZM74.22 13.2L72.96 16.44H72.9L71.58 13.2H70.38L72.36 17.76L71.22 20.28H72.36L75.42 13.2H74.22ZM64.14 18H65.28V10.5H64.14V18Z" fill="#0F1729"/>
  <path d="M6.24 4.5C6.06 4.68 6 4.98 6 5.34V18.6C6 18.96 6.12 19.26 6.3 19.44L6.36 19.5L13.8 12.06V11.94L6.24 4.5Z" fill="url(#paint0_linear_22888_10094)"/>
  <path d="M16.2 14.58L13.74 12.12V11.94L16.2 9.47998L16.26 9.53998L19.2 11.22C20.04 11.7 20.04 12.48 19.2 12.96L16.2 14.58Z" fill="url(#paint1_linear_22888_10094)"/>
  <path d="M16.26 14.52L13.74 12L6.23999 19.5C6.53999 19.8 6.95999 19.8 7.49999 19.56L16.26 14.52Z" fill="url(#paint2_linear_22888_10094)"/>
  <path d="M16.26 9.48L7.49999 4.5C6.95999 4.2 6.53999 4.26 6.23999 4.56L13.74 12L16.26 9.48Z" fill="url(#paint3_linear_22888_10094)"/>
  <path opacity="0.2" d="M16.2 14.46L7.49999 19.38C7.01999 19.68 6.59999 19.62 6.29999 19.38L6.23999 19.44L6.29999 19.5C6.59999 19.74 7.01999 19.8 7.49999 19.5L16.2 14.46Z" fill="black"/>
  <path opacity="0.12" d="M6.24 19.38C6.06 19.2 6 18.9 6 18.54V18.6C6 18.96 6.12 19.26 6.3 19.44V19.38H6.24ZM19.2 12.78L16.2 14.46L16.26 14.52L19.2 12.84C19.62 12.6 19.8 12.3 19.8 12C19.8 12.3 19.56 12.54 19.2 12.78Z" fill="black"/>
  <path opacity="0.25" d="M7.5 4.55999L19.2 11.22C19.56 11.46 19.8 11.7 19.8 12C19.8 11.7 19.62 11.4 19.2 11.16L7.5 4.49999C6.66 4.01999 6 4.37998 6 5.33998V5.39999C6 4.49999 6.66 4.07999 7.5 4.55999Z" fill="white"/>
  <defs>
    <linearGradient id="paint0_linear_22888_10094" x1="13.08" y1="5.226" x2="3.0102" y2="15.2952" gradientUnits="userSpaceOnUse">
      <stop stop-color="#00A0FF"/>
      <stop offset="0.007" stop-color="#00A1FF"/>
      <stop offset="0.26" stop-color="#00BEFF"/>
      <stop offset="0.512" stop-color="#00D2FF"/>
      <stop offset="0.76" stop-color="#00DFFF"/>
      <stop offset="1" stop-color="#00E3FF"/>
    </linearGradient>
    <linearGradient id="paint1_linear_22888_10094" x1="20.3004" y1="12.0006" x2="5.78219" y2="12.0006" gradientUnits="userSpaceOnUse">
      <stop stop-color="#FFE000"/>
      <stop offset="0.409" stop-color="#FFBD00"/>
      <stop offset="0.775" stop-color="#FFA500"/>
      <stop offset="1" stop-color="#FF9C00"/>
    </linearGradient>
    <linearGradient id="paint2_linear_22888_10094" x1="14.8962" y1="13.3776" x2="1.24139" y2="27.0324" gradientUnits="userSpaceOnUse">
      <stop stop-color="#FF3A44"/>
      <stop offset="1" stop-color="#C31162"/>
    </linearGradient>
    <linearGradient id="paint3_linear_22888_10094" x1="4.37819" y1="0.1056" x2="10.476" y2="6.2034" gradientUnits="userSpaceOnUse">
      <stop stop-color="#32A071"/>
      <stop offset="0.069" stop-color="#2DA771"/>
      <stop offset="0.476" stop-color="#15CF74"/>
      <stop offset="0.801" stop-color="#06E775"/>
      <stop offset="1" stop-color="#00F076"/>
    </linearGradient>
  </defs>
</svg>