<svg width="96" height="96" viewBox="0 0 96 96" fill="none" xmlns="http://www.w3.org/2000/svg">
<g opacity="0.75" clip-path="url(#clip0_13458_63729)">
<path opacity="0.4" d="M86.685 11.7431C76.4062 2.98876 61.125 4.56189 51.6919 14.2931L48 18.0994L44.3081 14.2931C34.8937 4.56189 19.5956 2.98876 9.31874 11.7431C-2.45251 21.7931 -3.07313 39.8325 7.46624 50.7244L43.7475 88.185C44.2956 88.7588 44.9544 89.2155 45.684 89.5276C46.4136 89.8396 47.199 90.0005 47.9925 90.0005C48.786 90.0005 49.5713 89.8396 50.3009 89.5276C51.0306 89.2155 51.6894 88.7588 52.2375 88.185L88.5187 50.7244C99.0769 39.8325 98.4562 21.7931 86.685 11.7431ZM76.785 46.4306L49.9537 73.4025C49.6873 73.6709 49.3703 73.8839 49.0212 74.0292C48.672 74.1746 48.2976 74.2494 47.9194 74.2494C47.5412 74.2494 47.1667 74.1746 46.8176 74.0292C46.4684 73.8839 46.1515 73.6709 45.885 73.4025L19.635 47.0063C14.3156 41.6588 13.3012 32.9438 18.0656 27.0881C19.3306 25.5186 20.9125 24.2335 22.7079 23.3169C24.5033 22.4003 26.4719 21.8727 28.4851 21.7687C30.4983 21.6647 32.5108 21.9865 34.3911 22.7131C36.2715 23.4397 37.9774 24.5549 39.3975 25.9856L47.9269 34.5544L55.8712 26.5706C61.1925 21.2231 69.8681 20.1956 75.6919 24.9863C77.2556 26.2677 78.5342 27.8619 79.4455 29.6666C80.3568 31.4712 80.8807 33.4465 80.9836 35.4656C81.0866 37.4847 80.7662 39.503 80.0432 41.391C79.3201 43.279 78.2103 44.9949 76.785 46.4288V46.4306Z" fill="white"/>
<path d="M45.885 73.4025L19.635 47.0062C14.3156 41.6587 13.3013 32.9437 18.0675 27.0881C19.3323 25.5186 20.914 24.2336 22.7093 23.317C24.5046 22.4004 26.473 21.8728 28.4861 21.7688C30.4991 21.6648 32.5114 21.9865 34.3916 22.7132C36.2718 23.4398 37.9776 24.5549 39.3975 25.9856L47.9269 34.5544L55.8713 26.5706C61.1925 21.225 69.8681 20.1956 75.6919 24.9862C77.2561 26.2671 78.5353 27.8609 79.4473 29.6653C80.3592 31.4697 80.8839 33.4448 80.9875 35.4639C81.0912 37.483 80.7715 39.5015 80.0491 41.3898C79.3266 43.2781 78.2174 44.9944 76.7925 46.4287L49.9519 73.4025C49.6856 73.6708 49.3688 73.8838 49.0198 74.0291C48.6708 74.1744 48.2965 74.2492 47.9184 74.2492C47.5404 74.2492 47.1661 74.1744 46.8171 74.0291C46.4681 73.8838 46.1513 73.6708 45.885 73.4025Z" fill="white"/>
</g>
<defs>
<clipPath id="clip0_13458_63729">
<rect width="96" height="96" fill="white"/>
</clipPath>
</defs>
</svg>
