<svg width="96" height="96" viewBox="0 0 96 96" fill="none" xmlns="http://www.w3.org/2000/svg">
<g opacity="0.75" clip-path="url(#clip0_13458_63763)">
<path opacity="0.4" d="M93.375 13.9069C94.2115 14.7427 94.8751 15.7352 95.3279 16.8276C95.7806 17.92 96.0137 19.0909 96.0137 20.2735C96.0137 21.456 95.7806 22.6269 95.3279 23.7193C94.8751 24.8117 94.2115 25.8042 93.375 26.64L82.7625 37.2431L58.7625 13.2431L69.3656 2.64001C70.2015 1.80351 71.1939 1.13991 72.2864 0.687162C73.3788 0.234409 74.5497 0.00137329 75.7322 0.00137329C76.9147 0.00137329 78.0856 0.234409 79.1781 0.687162C80.2705 1.13991 81.2629 1.80351 82.0988 2.64001L93.375 13.9069Z" fill="white"/>
<path d="M63 25.9668L78.5193 41.4862L41.625 78.3843C31.77 88.2392 18.8515 94.4425 4.99873 95.9718C4.32778 96.0466 3.64862 95.9694 3.01154 95.7461C2.37447 95.5227 1.79581 95.1589 1.31845 94.6815C0.841082 94.2041 0.477239 93.6255 0.253874 92.9884C0.0305095 92.3513 -0.0466535 91.6722 0.0281021 91.0012V90.9581C1.56946 77.1193 7.77543 64.2174 17.625 54.375L46.035 25.965L41.7919 21.7237L22.7006 40.815C22.422 41.0936 22.0913 41.3147 21.7272 41.4655C21.3632 41.6163 20.9731 41.6939 20.579 41.6939C20.185 41.6939 19.7949 41.6163 19.4308 41.4655C19.0668 41.3147 18.7361 41.0936 18.4575 40.815L14.2144 36.5718C13.6522 36.0093 13.3364 35.2465 13.3364 34.4512C13.3364 33.6559 13.6522 32.8931 14.2144 32.3306L36.4856 10.0575C37.8921 8.65144 39.7994 7.86157 41.7881 7.86157C43.7768 7.86157 45.6841 8.65144 47.0906 10.0575L63 25.9668Z" fill="white"/>
</g>
<defs>
<clipPath id="clip0_13458_63763">
<rect width="96" height="96" fill="white"/>
</clipPath>
</defs>
</svg>
