<svg width="72" height="96" viewBox="0 0 72 96" fill="none" xmlns="http://www.w3.org/2000/svg">
<g opacity="0.75" clip-path="url(#clip0_13458_63694)">
<path opacity="0.4" d="M34.2 70.0312C27.0187 70.0312 21.2062 75.8437 21.2062 83.025C21.2062 90.2062 27.0187 96.0187 34.2 96.0187C41.3812 96.0187 47.1938 90.2062 47.1938 83.025C47.1938 75.8437 41.3812 70.0312 34.2 70.0312Z" fill="white"/>
<path d="M68.9813 28.8C68.9813 50.55 45.4875 50.8875 45.4875 58.9125V60C45.4875 62.4938 43.4813 64.5 40.9875 64.5H27.3938C24.9 64.5 22.8938 62.4938 22.8938 60V58.1625C22.8938 46.575 31.6875 41.9438 38.325 38.2125C44.025 35.025 47.5125 32.85 47.5125 28.6125C47.5125 23.025 40.3875 19.3125 34.6125 19.3125C27.2813 19.3125 23.775 22.7062 19.0875 28.575C17.5688 30.4875 14.7938 30.825 12.8438 29.3438L4.7625 23.2125C2.83125 21.75 2.4 19.0312 3.7875 17.0438C11.4188 6.13125 21.1125 0 36.075 0C51.9938 0 68.9813 12.4313 68.9813 28.8Z" fill="white"/>
</g>
<defs>
<clipPath id="clip0_13458_63694">
<rect width="72" height="96" fill="white"/>
</clipPath>
</defs>
</svg>
