<svg xmlns="http://www.w3.org/2000/svg" width="20" height="21" viewBox="0 0 20 21" fill="none">
  <g clip-path="url(#clip0_22860_19762)">
    <path d="M10 13.125C9.3158 13.1242 8.65984 12.8474 8.17603 12.3553C7.69223 11.8632 7.4201 11.196 7.41935 10.5C7.41935 9.3126 8.20363 8.31838 9.26935 7.99518L11.4919 5.73357L11.4065 5.4719C10.9569 5.34188 10.4911 5.25 10 5.25C8.97919 5.25 7.98131 5.55791 7.13254 6.13478C6.28377 6.71166 5.62224 7.5316 5.23159 8.49091C4.84094 9.45022 4.73873 10.5058 4.93788 11.5242C5.13703 12.5426 5.6286 13.4781 6.35042 14.2123C7.07224 14.9465 7.99189 15.4466 8.99308 15.6491C9.99427 15.8517 11.032 15.7477 11.9751 15.3504C12.9182 14.953 13.7243 14.2801 14.2915 13.4167C14.8586 12.5534 15.1613 11.5384 15.1613 10.5C15.1613 10.0004 15.071 9.5267 14.9427 9.06896L14.6859 8.98242L12.4625 11.244C12.3061 11.7856 11.9819 12.2613 11.5382 12.6003C11.0945 12.9392 10.5549 13.1233 10 13.125ZM19.5335 7.42793L18.102 8.88398C17.8831 9.10464 17.6193 9.27365 17.329 9.37904C17.9702 13.5294 15.1823 17.4222 11.102 18.0744C7.02177 18.7265 3.19476 15.8903 2.55363 11.7403C1.9125 7.59035 4.70081 3.69715 8.78064 3.045C9.55393 2.92161 10.3414 2.9223 11.1145 3.04705C11.214 2.75218 11.3759 2.48309 11.5887 2.25873L13.0202 0.802676C12.0433 0.48795 11.0247 0.327896 10 0.328125C4.47581 0.328125 0 4.88086 0 10.5C0 16.1191 4.47581 20.6719 10 20.6719C15.5242 20.6719 20 16.1191 20 10.5C20.0002 9.4577 19.8429 8.42157 19.5335 7.42793Z" fill="#0F1729"/>
    <path d="M12.8563 3.53766L12.8565 3.53738L15.4237 0.92531C15.4237 0.925239 15.4238 0.925167 15.4239 0.925096C15.464 0.884521 15.5128 0.855741 15.5654 0.840577C15.618 0.825398 15.6733 0.824136 15.7265 0.836854C15.7796 0.849581 15.8296 0.876086 15.8713 0.914741C15.913 0.953332 15.9451 1.00282 15.9638 1.05898C15.9639 1.05915 15.9639 1.05931 15.964 1.05948L16.7115 3.34056L16.7893 3.57813L17.0261 3.65839L19.269 4.41872C19.2692 4.41879 19.2693 4.41885 19.2695 4.41891C19.3213 4.43676 19.3687 4.46801 19.4069 4.51065C19.4452 4.55348 19.4728 4.60631 19.4863 4.66443C19.4997 4.72257 19.4984 4.78332 19.4824 4.84069C19.4664 4.89804 19.4365 4.94939 19.3965 4.99027L19.3964 4.99029L16.8327 7.60666C16.8327 7.60672 16.8326 7.60678 16.8326 7.60685C16.7889 7.65125 16.7349 7.68159 16.6769 7.69561C16.6192 7.70959 16.5589 7.70709 16.5023 7.68826C16.502 7.68818 16.5018 7.68811 16.5016 7.68803L14.4992 7.00897L14.2021 6.90821L13.9822 7.13189L10.3289 10.8467L10.3289 10.8467C10.2402 10.937 10.1217 10.9861 9.99994 10.9861C9.87822 10.9861 9.75972 10.937 9.67101 10.8467C9.58201 10.7562 9.53052 10.6316 9.53052 10.5C9.53052 10.3684 9.58201 10.2438 9.67101 10.1533L13.3238 6.43766L13.5373 6.22053L13.4423 5.93123L12.7739 3.89436C12.7739 3.89415 12.7738 3.89394 12.7737 3.89373C12.7539 3.83215 12.7511 3.76589 12.7659 3.70262C12.7808 3.63918 12.8124 3.58221 12.8563 3.53766Z" stroke="#0F1729"/>
  </g>
  <defs>
    <clipPath id="clip0_22860_19762">
      <rect width="20" height="21" fill="white"/>
    </clipPath>
  </defs>
</svg>