<svg width="96" height="96" viewBox="0 0 96 96" fill="none" xmlns="http://www.w3.org/2000/svg">
<g opacity="0.75" clip-path="url(#clip0_13458_63857)">
<path opacity="0.4" d="M28.7569 52.2431L18.75 62.25L14.1207 57.6206C13.5581 57.0584 12.7953 56.7426 12 56.7426C11.2047 56.7426 10.442 57.0584 9.87941 57.6206L6.59066 60.9075C6.13519 61.3629 5.8384 61.9529 5.74419 62.5901C5.64998 63.2273 5.76335 63.8779 6.06753 64.4456L12 75.5081L0.87941 86.6363C0.600762 86.9148 0.379722 87.2456 0.228915 87.6096C0.0781083 87.9736 0.000488281 88.3638 0.000488281 88.7578C0.000488281 89.1518 0.0781083 89.542 0.228915 89.906C0.379722 90.27 0.600762 90.6008 0.87941 90.8794L5.12066 95.1206C5.39924 95.3993 5.72999 95.6203 6.09401 95.7711C6.45803 95.9219 6.8482 95.9995 7.24222 95.9995C7.63625 95.9995 8.02641 95.9219 8.39043 95.7711C8.75445 95.6203 9.0852 95.3993 9.36378 95.1206L20.4844 84L31.5469 89.9325C32.1147 90.2367 32.7653 90.3501 33.4025 90.2558C34.0396 90.1616 34.6296 89.8648 35.085 89.4094L38.3719 86.1206C38.9341 85.5581 39.2499 84.7953 39.2499 84C39.2499 83.2047 38.9341 82.4419 38.3719 81.8794L33.75 77.25L43.7569 67.2431L28.7569 52.2431ZM93.1482 0.0262515L78.5025 2.50125L52.2525 28.7513L67.2525 43.7513L93.5025 17.5013L95.9775 2.85563C96.0328 2.47123 95.9976 2.07925 95.875 1.71078C95.7523 1.34232 95.5455 1.00751 95.2709 0.732905C94.9963 0.458303 94.6615 0.251468 94.293 0.128806C93.9245 0.00614438 93.5326 -0.0289689 93.1482 0.0262515Z" fill="white"/>
<path d="M73.0069 58.0087L17.5069 2.50874L2.85377 0.0262435C2.46962 -0.0289875 2.07788 0.00606972 1.70964 0.128633C1.3414 0.251197 1.00679 0.457895 0.732356 0.732325C0.457925 1.00676 0.251228 1.34137 0.128664 1.70961C0.00610023 2.07785 -0.028957 2.46959 0.026274 2.85374L2.50127 17.4994L58.0013 73.0087L73.0069 58.0087ZM95.1207 86.6362L84 75.5156L89.9325 64.4531C90.2367 63.8854 90.3501 63.2348 90.2559 62.5976C90.1617 61.9604 89.8649 61.3704 89.4094 60.915L86.1207 57.6281C85.8421 57.3495 85.5113 57.1284 85.1473 56.9776C84.7833 56.8268 84.3931 56.7492 83.9991 56.7492C83.6051 56.7492 83.2149 56.8268 82.8509 56.9776C82.4869 57.1284 82.1561 57.3495 81.8775 57.6281L57.6207 81.8794C57.0585 82.4419 56.7427 83.2047 56.7427 84C56.7427 84.7953 57.0585 85.5581 57.6207 86.1206L60.9075 89.4094C61.363 89.8648 61.9529 90.1616 62.5901 90.2558C63.2273 90.3501 63.8779 90.2367 64.4457 89.9325L75.5082 84L86.6288 95.1206C86.9074 95.3993 87.2381 95.6203 87.6021 95.7711C87.9662 95.9219 88.3563 95.9995 88.7503 95.9995C89.1444 95.9995 89.5345 95.9219 89.8986 95.7711C90.2626 95.6203 90.5933 95.3993 90.8719 95.1206L95.1132 90.8794C95.3923 90.6013 95.6139 90.2709 95.7654 89.9072C95.9168 89.5434 95.9951 89.1534 95.9958 88.7594C95.9965 88.3653 95.9196 87.975 95.7694 87.6107C95.6193 87.2465 95.3988 86.9153 95.1207 86.6362Z" fill="white"/>
</g>
<defs>
<clipPath id="clip0_13458_63857">
<rect width="96" height="96" fill="white"/>
</clipPath>
</defs>
</svg>
