<svg xmlns="http://www.w3.org/2000/svg" width="21" height="20" viewBox="0 0 21 20" fill="none">
  <path d="M15.5 11.6667C15.0076 11.6699 14.5221 11.7822 14.0783 11.9955C13.6346 12.2087 13.2435 12.5176 12.9333 12.9L8.68334 10.9417C8.88316 10.3298 8.88316 9.6702 8.68334 9.05833L12.9333 7.09999C13.4347 7.70497 14.1336 8.11339 14.9068 8.25319C15.68 8.39299 16.4777 8.25518 17.1591 7.86408C17.8406 7.47298 18.362 6.85372 18.6313 6.11561C18.9006 5.3775 18.9005 4.56798 18.6311 3.82992C18.3616 3.09185 17.8401 2.4727 17.1586 2.08172C16.4771 1.69074 15.6793 1.55307 14.9062 1.69301C14.1331 1.83296 13.4342 2.24151 12.933 2.84657C12.4317 3.45163 12.1603 4.21431 12.1667 4.99999C12.1692 5.19852 12.1887 5.39647 12.225 5.59166L7.825 7.61666C7.3559 7.15798 6.76187 6.84792 6.11734 6.72535C5.47281 6.60278 4.80644 6.67313 4.20171 6.9276C3.59699 7.18207 3.08081 7.60934 2.71784 8.15588C2.35487 8.70241 2.16125 9.34391 2.16125 9.99999C2.16125 10.6561 2.35487 11.2976 2.71784 11.8441C3.08081 12.3906 3.59699 12.8179 4.20171 13.0724C4.80644 13.3269 5.47281 13.3972 6.11734 13.2746C6.76187 13.1521 7.3559 12.842 7.825 12.3833L12.225 14.4083C12.1887 14.6035 12.1692 14.8015 12.1667 15C12.1667 15.6593 12.3622 16.3037 12.7284 16.8519C13.0947 17.4001 13.6153 17.8273 14.2244 18.0796C14.8335 18.3319 15.5037 18.3979 16.1503 18.2693C16.7969 18.1407 17.3909 17.8232 17.857 17.357C18.3232 16.8908 18.6407 16.2969 18.7693 15.6503C18.8979 15.0037 18.8319 14.3335 18.5796 13.7244C18.3273 13.1153 17.9001 12.5947 17.3519 12.2284C16.8037 11.8622 16.1593 11.6667 15.5 11.6667ZM15.5 3.33333C15.8296 3.33333 16.1519 3.43108 16.426 3.61421C16.7 3.79735 16.9137 4.05764 17.0398 4.36219C17.1659 4.66673 17.199 5.00184 17.1346 5.32514C17.0703 5.64845 16.9116 5.94542 16.6785 6.1785C16.4454 6.41159 16.1485 6.57033 15.8252 6.63464C15.5019 6.69894 15.1667 6.66594 14.8622 6.53979C14.5577 6.41365 14.2974 6.20003 14.1142 5.92594C13.9311 5.65186 13.8333 5.32963 13.8333 4.99999C13.8333 4.55797 14.0089 4.13404 14.3215 3.82148C14.6341 3.50892 15.058 3.33333 15.5 3.33333ZM5.5 11.6667C5.17037 11.6667 4.84813 11.5689 4.57405 11.3858C4.29997 11.2026 4.08635 10.9423 3.9602 10.6378C3.83406 10.3333 3.80105 9.99815 3.86536 9.67484C3.92967 9.35154 4.0884 9.05457 4.32149 8.82148C4.55458 8.5884 4.85155 8.42966 5.17485 8.36535C5.49815 8.30104 5.83327 8.33405 6.13781 8.46019C6.44235 8.58634 6.70265 8.79996 6.88579 9.07404C7.06892 9.34812 7.16667 9.67036 7.16667 9.99999C7.16667 10.442 6.99108 10.8659 6.67851 11.1785C6.36595 11.4911 5.94203 11.6667 5.5 11.6667ZM15.5 16.6667C15.1704 16.6667 14.8481 16.5689 14.5741 16.3858C14.3 16.2026 14.0864 15.9423 13.9602 15.6378C13.8341 15.3333 13.8011 14.9981 13.8654 14.6748C13.9297 14.3515 14.0884 14.0546 14.3215 13.8215C14.5546 13.5884 14.8516 13.4297 15.1749 13.3654C15.4982 13.301 15.8333 13.334 16.1378 13.4602C16.4424 13.5863 16.7027 13.8 16.8858 14.074C17.0689 14.3481 17.1667 14.6704 17.1667 15C17.1667 15.442 16.9911 15.8659 16.6785 16.1785C16.366 16.4911 15.942 16.6667 15.5 16.6667Z" fill="white"/>
</svg>