<svg xmlns="http://www.w3.org/2000/svg" width="20" height="20" viewBox="0 0 20 20" fill="none">
  <g clip-path="url(#clip0_22870_20987)">
    <path d="M5.99117 11.5912L4.25995 13.3224L3.9064 13.676L3.55285 13.3224L2.58851 12.3581L5.99117 11.5912ZM5.99117 11.5912L8.40906 14.0091L6.67785 15.7403L6.32458 16.0936L6.67756 16.4471L7.64045 17.4116L7.64062 17.4117C7.66405 17.4352 7.6772 17.467 7.6772 17.5001C7.6772 17.5332 7.66405 17.565 7.64062 17.5885L6.95596 18.2735C6.93698 18.2925 6.9124 18.3049 6.88586 18.3088C6.85931 18.3127 6.8322 18.308 6.80854 18.2953L4.50403 17.0595L4.17676 16.884L3.91417 17.1466L1.59738 19.4634L1.59734 19.4634C1.58573 19.475 1.57195 19.4842 1.55678 19.4905C1.54162 19.4968 1.52536 19.5 1.50894 19.5C1.49252 19.5 1.47626 19.4968 1.4611 19.4905C1.44593 19.4842 1.43215 19.475 1.42054 19.4634L1.4205 19.4634L0.536906 18.5798L0.536867 18.5797C0.525254 18.5681 0.516045 18.5543 0.509762 18.5392C0.503478 18.524 0.500244 18.5077 0.500244 18.4913C0.500244 18.4749 0.503478 18.4586 0.509762 18.4435C0.516047 18.4283 0.525257 18.4145 0.536861 18.4029L0.537026 18.4028L2.85382 16.0844L3.11623 15.8218L2.94079 15.4947L1.70494 13.1902C1.70492 13.1901 1.70489 13.1901 1.70487 13.19C1.70486 13.19 1.70486 13.19 1.70485 13.19C1.69225 13.1664 1.68756 13.1393 1.69147 13.1128C1.69539 13.0863 1.70772 13.0618 1.72665 13.0428L1.72674 13.0427L2.41179 12.3581C2.4118 12.3581 2.4118 12.3581 2.41181 12.3581C2.43524 12.3346 2.46702 12.3215 2.50015 12.3215C2.53323 12.3215 2.56497 12.3346 2.58839 12.358L5.99117 11.5912ZM11.5932 5.98995L16.5955 0.987614L19.4792 0.500304C19.4817 0.500195 19.4842 0.500545 19.4866 0.501344C19.4896 0.502361 19.4924 0.504075 19.4947 0.506343C19.497 0.50862 19.4987 0.511396 19.4997 0.514449C19.5005 0.516853 19.5008 0.519373 19.5007 0.521885L19.0134 3.40551L14.0111 8.40784L11.5932 5.98995Z" stroke="#0F1729"/>
    <path d="M15.2098 12.0853L3.64734 0.52276L0.594602 0.0055723C0.514571 -0.00593415 0.432958 0.00136943 0.356241 0.0269036C0.279524 0.0524377 0.209813 0.0954996 0.15264 0.152673C0.0954672 0.209846 0.0524053 0.279556 0.0268711 0.356273C0.001337 0.432991 -0.00596658 0.514603 0.00553988 0.594635L0.521165 3.64581L12.0837 15.2103L15.2098 12.0853ZM19.8169 18.0493L17.5001 15.7325L18.736 13.4278C18.7994 13.3096 18.823 13.174 18.8034 13.0413C18.7837 12.9085 18.7219 12.7856 18.627 12.6907L17.9419 12.006C17.8838 11.9479 17.8149 11.9019 17.7391 11.8704C17.6632 11.839 17.582 11.8229 17.4999 11.8229C17.4178 11.8229 17.3365 11.839 17.2607 11.8704C17.1848 11.9019 17.1159 11.9479 17.0579 12.006L12.0044 17.0583C11.8872 17.1755 11.8215 17.3344 11.8215 17.5001C11.8215 17.6658 11.8872 17.8247 12.0044 17.9419L12.6891 18.6271C12.784 18.7219 12.9069 18.7838 13.0397 18.8034C13.1724 18.823 13.308 18.7994 13.4262 18.736L15.7309 17.5001L18.0477 19.8169C18.1058 19.875 18.1747 19.921 18.2505 19.9524C18.3263 19.9838 18.4076 20 18.4897 20C18.5718 20 18.6531 19.9838 18.7289 19.9524C18.8048 19.921 18.8737 19.875 18.9317 19.8169L19.8153 18.9333C19.8735 18.8754 19.9196 18.8065 19.9512 18.7308C19.9827 18.655 19.9991 18.5737 19.9992 18.4916C19.9993 18.4096 19.9833 18.3282 19.952 18.2523C19.9207 18.1765 19.8748 18.1075 19.8169 18.0493Z" fill="#0F1729"/>
  </g>
  <defs>
    <clipPath id="clip0_22870_20987">
      <rect width="20" height="20" fill="white"/>
    </clipPath>
  </defs>
</svg>