<svg xmlns="http://www.w3.org/2000/svg" width="24" height="24" viewBox="0 0 24 24" fill="none">
  <path d="M9.08765 20.0266C9.08765 18.577 10.2222 17.4238 11.6001 17.4238C12.9781 17.4238 14.1126 18.577 14.1126 20.0266C14.1126 21.4761 12.9781 22.6293 11.6001 22.6293C10.2222 22.6293 9.08765 21.4761 9.08765 20.0266Z" stroke="#0F1729" stroke-width="0.75"/>
  <path d="M19.3292 7.6C19.3292 12.5844 14.1084 12.6617 14.1084 14.5008V14.75C14.1084 15.3215 13.6625 15.7812 13.1084 15.7812H10.0875C9.53336 15.7812 9.08753 15.3215 9.08753 14.75V14.3289C9.08753 11.6734 11.0417 10.6121 12.5167 9.75703C13.7834 9.02656 14.5584 8.52813 14.5584 7.55703C14.5584 6.27656 12.975 5.42578 11.6917 5.42578C10.0625 5.42578 9.28336 6.20352 8.24169 7.54844C7.90419 7.98672 7.28753 8.06406 6.85419 7.72461L5.05836 6.31953C4.62919 5.98438 4.53336 5.36133 4.84169 4.90586C6.53753 2.40508 8.69169 1 12.0167 1C15.5542 1 19.3292 3.84883 19.3292 7.6Z" fill="#0F1729"/>
</svg>