<svg width="98" height="24" viewBox="0 0 98 24" fill="none" xmlns="http://www.w3.org/2000/svg">
<g clip-path="url(#clip0_13458_63787)">
<path d="M2.09749e-06 6C2.67669e-06 2.68629 2.68545 -5.79387e-07 5.99812 0L17.9943 2.09815e-06C21.307 2.67753e-06 23.9925 2.68629 23.9925 6L23.9925 18C23.9925 21.3137 21.307 24 17.9943 24L5.99811 24C2.68545 24 -5.79205e-07 21.3137 0 18L2.09749e-06 6Z" fill="#1589EE"/>
<path opacity="0.75" d="M8.24741 8.54707C8.24741 8.71917 8.38217 8.88221 8.59044 8.95468C8.81096 9.02714 9.05598 9.00903 9.23975 8.90033L9.252 8.89127L11.9962 7.17932L14.7405 8.89127L14.7527 8.90033C14.863 8.96374 14.9977 8.99997 15.1325 8.99997C15.2183 8.99997 15.3163 8.98185 15.402 8.94562C15.6103 8.87316 15.7451 8.71011 15.7451 8.53801L15.7451 2.22461L15.7451 2.22205L15.7451 -2.57492e-05L8.24741 -2.73586e-05L8.24741 8.54707Z" fill="white"/>
<path opacity="0.5" d="M8.24741 11.5471C8.24741 11.7192 8.38217 11.8822 8.59044 11.9547C8.81096 12.0271 9.05598 12.009 9.23975 11.9003L9.252 11.8913L11.9962 10.1793L14.7405 11.8913L14.7527 11.9003C14.863 11.9637 14.9977 12 15.1325 12C15.2183 12 15.3163 11.9819 15.402 11.9456C15.6103 11.8732 15.7451 11.7101 15.7451 11.538L15.7451 5.22461L15.7451 5.22205L15.7451 -1.52588e-05L8.24741 -1.59145e-05L8.24741 11.5471Z" fill="white"/>
<path opacity="0.25" d="M8.24741 14.5471C8.24741 14.7192 8.38217 14.8822 8.59044 14.9547C8.81096 15.0271 9.05598 15.009 9.23975 14.9003L9.252 14.8913L11.9962 13.1793L14.7405 14.8913L14.7527 14.9003C14.863 14.9637 14.9977 15 15.1325 15C15.2183 15 15.3163 14.9819 15.402 14.9456C15.6103 14.8732 15.7451 14.7101 15.7451 14.538L15.7451 8.22461C15.7451 8.22375 15.7451 8.2229 15.7451 8.22205L15.7451 -2.67029e-05L8.24741 -2.73586e-05L8.24741 14.5471Z" fill="white"/>
<path d="M35.6185 5.43048L38.529 14.5719L41.4305 5.43048H45.5679V18.5695H42.4156V15.5013L42.7201 9.22059L39.5678 18.5695H37.4902L34.329 9.21156L34.6334 15.5013V18.5695H31.4901V5.43048H35.6185Z" fill="white"/>
<path d="M56.0582 16.115H51.7506L50.9984 18.5695H47.6402L52.4223 5.43048H55.3776L60.1955 18.5695H56.8194L56.0582 16.115ZM52.5029 13.6695H55.3059L53.8999 9.1123L52.5029 13.6695Z" fill="white"/>
<path d="M66.9156 13.9311H65.2141V18.5695H62.0708V5.43048H67.2022C68.7485 5.43048 69.9574 5.7764 70.8291 6.46825C71.7007 7.16009 72.1366 8.1377 72.1366 9.40107C72.1366 10.3155 71.9515 11.0735 71.5813 11.6751C71.2171 12.2767 70.644 12.764 69.8619 13.137L72.5843 18.4342V18.5695H69.2171L66.9156 13.9311ZM65.2141 11.4856H67.2022C67.7992 11.4856 68.247 11.3292 68.5455 11.0164C68.85 10.6975 69.0022 10.2553 69.0022 9.68984C69.0022 9.12433 68.85 8.68215 68.5455 8.3633C68.241 8.03844 67.7932 7.876 67.2022 7.876H65.2141V11.4856Z" fill="white"/>
<path d="M79.385 13.6785L78.0954 15.1043V18.5695H74.9521V5.43048H78.0954V11.2239L79.188 9.55448L82 5.43048H85.8866L81.4805 11.242L85.8866 18.5695H82.1612L79.385 13.6785Z" fill="white"/>
<path d="M94.3261 15.0772C94.3261 14.614 94.1619 14.253 93.8335 13.9943C93.5111 13.7356 92.941 13.4679 92.1231 13.1912C91.3051 12.9144 90.6365 12.6467 90.1171 12.388C88.4275 11.5518 87.5827 10.4027 87.5827 8.94084C87.5827 8.2129 87.7917 7.57219 88.2096 7.01872C88.6335 6.45922 89.2305 6.02607 90.0006 5.71925C90.7708 5.40642 91.6365 5.25 92.5977 5.25C93.535 5.25 94.3738 5.41845 95.1141 5.75535C95.8604 6.09225 96.4395 6.57353 96.8515 7.1992C97.2634 7.81885 97.4694 8.52874 97.4694 9.32888H94.335C94.335 8.79345 94.1708 8.37834 93.8425 8.08356C93.5201 7.78877 93.0813 7.64138 92.526 7.64138C91.9648 7.64138 91.5201 7.76771 91.1917 8.02039C90.8693 8.26705 90.7081 8.58289 90.7081 8.96791C90.7081 9.30481 90.8872 9.61163 91.2454 9.88837C91.6036 10.1591 92.2335 10.4418 93.135 10.7366C94.0365 11.0254 94.7768 11.3382 95.3559 11.6751C96.7649 12.4933 97.4694 13.6213 97.4694 15.0592C97.4694 16.2082 97.0395 17.1106 96.1798 17.7664C95.3201 18.4221 94.141 18.75 92.6425 18.75C91.5857 18.75 90.6275 18.5605 89.7678 18.1815C88.9141 17.7965 88.2693 17.2731 87.8335 16.6113C87.4036 15.9435 87.1887 15.1765 87.1887 14.3102H90.3409C90.3409 15.014 90.5201 15.5344 90.8783 15.8713C91.2425 16.2022 91.8305 16.3676 92.6425 16.3676C93.1619 16.3676 93.5708 16.2563 93.8693 16.0338C94.1738 15.8051 94.3261 15.4863 94.3261 15.0772Z" fill="white"/>
</g>
<defs>
<clipPath id="clip0_13458_63787">
<rect width="97.4694" height="24" fill="white"/>
</clipPath>
</defs>
</svg>
