<svg width="360" height="244" viewBox="0 0 360 244" fill="none" xmlns="http://www.w3.org/2000/svg">
<path opacity="0.25" d="M123.75 196.207C123.75 198.788 125.772 201.234 128.897 202.321C132.205 203.408 135.882 203.136 138.639 201.505L138.823 201.37L180 175.69L221.176 201.37L221.36 201.506C223.014 202.457 225.036 203 227.058 203C228.345 203 229.816 202.728 231.102 202.185C234.227 201.098 236.249 198.652 236.249 196.071L236.25 101.37L236.249 86L236.249 86.0069L123.75 86.0069L123.75 196.207Z" fill="white"/>
<path d="M3.75121 90.0003C3.75122 42.3664 42.3661 3.75159 90 3.75159L270 3.75163C317.634 3.75163 356.249 42.3665 356.249 90.0003L356.249 270C356.249 317.634 317.634 356.249 270 356.249L90 356.249C42.3661 356.249 3.75117 317.634 3.75118 270L3.75121 90.0003Z" stroke="white" stroke-width="7.50236"/>
<path opacity="0.25" d="M123.75 153.207C123.75 155.788 125.772 158.234 128.897 159.321C132.205 160.408 135.882 160.136 138.639 158.505L138.823 158.37L180 132.69L221.176 158.37L221.36 158.506C223.014 159.457 225.036 160 227.058 160C228.345 160 229.816 159.728 231.102 159.185C234.227 158.098 236.249 155.652 236.249 153.071L236.25 58.3698L236.249 43L236.249 43.0069L123.75 43.0069L123.75 153.207Z" fill="white"/>
<path d="M123.75 110.207C123.75 112.788 125.772 115.234 128.897 116.321C132.205 117.408 135.882 117.136 138.639 115.505L138.823 115.37L180 89.6903L221.176 115.37L221.36 115.506C223.014 116.457 225.036 117 227.058 117C228.345 117 229.816 116.728 231.102 116.185C234.227 115.098 236.249 112.652 236.249 110.071L236.25 15.3698L236.249 1.52588e-05L236.249 0.00688171L123.75 0.00685662L123.75 110.207Z" fill="white"/>
<path d="M3.75121 90.0003C3.75122 42.3664 42.3661 3.75159 90 3.75159L270 3.75163C317.634 3.75163 356.249 42.3665 356.249 90.0003L356.249 270C356.249 317.634 317.634 356.249 270 356.249L90 356.249C42.3661 356.249 3.75117 317.634 3.75118 270L3.75121 90.0003Z" stroke="white" stroke-width="7.50236"/>
</svg>
